<?xml version="1.0" standalone="no"?>
<!DOCTYPE svg PUBLIC "-//W3C//DTD SVG 20010904//EN"
 "http://www.w3.org/TR/2001/REC-SVG-20010904/DTD/svg10.dtd">
<svg version="1.0" xmlns="http://www.w3.org/2000/svg"
 width="1200.000000pt" height="1200.000000pt" viewBox="0 0 1200.000000 1200.000000"
 preserveAspectRatio="xMidYMid meet">
<metadata>
Created by potrace 1.14, written by Peter Selinger 2001-2017
</metadata>
<g transform="translate(0.000000,1200.000000) scale(0.100000,-0.100000)"
fill="#000000" stroke="none">
<path d="M11960 11985 c-19 -8 -89 -35 -155 -60 -66 -26 -147 -57 -180 -70
-33 -13 -197 -76 -365 -140 -168 -64 -343 -132 -390 -150 -47 -18 -152 -58
-235 -90 -82 -31 -159 -60 -170 -65 -11 -5 -110 -44 -220 -86 -110 -42 -227
-86 -260 -99 -33 -13 -190 -74 -350 -135 -159 -61 -299 -115 -310 -120 -11 -5
-123 -48 -250 -95 -126 -48 -243 -93 -260 -100 -16 -8 -115 -46 -220 -85 -104
-40 -204 -78 -222 -86 -17 -8 -34 -14 -38 -14 -4 0 -21 -6 -38 -14 -18 -8
-129 -51 -247 -96 -118 -45 -312 -119 -430 -165 -118 -46 -323 -124 -455 -175
-132 -50 -249 -95 -260 -100 -11 -5 -146 -57 -300 -115 -154 -59 -289 -110
-300 -116 -19 -8 -141 -55 -270 -104 -131 -48 -1011 -387 -1030 -395 -20 -9
-238 -93 -575 -221 -102 -39 -198 -76 -215 -84 -16 -7 -86 -34 -155 -60 -69
-26 -165 -63 -215 -82 -49 -19 -155 -60 -235 -91 -80 -30 -176 -67 -215 -82
-38 -15 -119 -46 -180 -69 -60 -22 -119 -45 -130 -50 -11 -5 -74 -30 -140 -55
l-121 -46 0 -1059 0 -1059 51 20 c27 11 109 43 180 70 527 201 1032 396 1060
408 11 5 65 25 120 46 55 20 114 42 130 49 32 14 48 20 635 244 217 83 404
155 415 160 11 5 128 51 260 101 132 50 254 98 272 106 17 8 34 14 37 14 6 0
173 63 211 80 11 4 88 34 170 65 83 32 177 68 210 81 33 12 132 50 220 84 88
33 169 65 180 70 11 6 45 19 75 29 68 24 418 158 445 171 11 5 292 113 625
240 535 205 758 291 1150 442 128 50 21 8 1230 473 553 212 1073 412 1155 444
83 32 194 75 248 96 l97 37 0 1059 c0 582 -1 1059 -2 1058 -2 0 -19 -6 -38
-14z"/>
<path d="M9080 7729 c-41 -16 -84 -34 -95 -39 -11 -5 -193 -75 -405 -156 -212
-81 -464 -177 -560 -214 -96 -37 -236 -90 -310 -119 -74 -28 -144 -55 -155
-60 -11 -5 -87 -35 -170 -66 -186 -70 -324 -123 -350 -135 -11 -5 -157 -61
-325 -125 -168 -63 -314 -120 -325 -125 -11 -5 -65 -26 -120 -46 -55 -20 -113
-42 -130 -49 -16 -7 -75 -30 -130 -50 -55 -21 -113 -43 -130 -50 -16 -7 -154
-60 -305 -118 -644 -246 -726 -278 -745 -287 -11 -5 -186 -72 -390 -150 -203
-77 -379 -144 -390 -149 -34 -15 -83 -33 -690 -266 -324 -124 -599 -229 -610
-234 -24 -11 -88 -35 -95 -37 -3 0 -14 -4 -25 -9 -11 -5 -72 -28 -135 -52 -63
-24 -124 -48 -135 -53 -11 -4 -58 -23 -105 -40 -100 -37 -257 -98 -285 -110
-11 -5 -234 -91 -495 -190 -513 -196 -622 -239 -715 -275 -33 -13 -179 -69
-325 -125 -146 -55 -278 -107 -295 -114 -16 -8 -54 -21 -83 -31 l-52 -17 0
-1059 c0 -582 2 -1059 4 -1059 2 0 97 36 212 81 115 44 232 89 259 99 28 10
84 32 125 48 41 16 125 48 185 71 61 22 119 45 130 50 11 5 245 96 520 201
275 105 509 195 520 200 11 4 164 63 340 130 176 67 329 126 340 131 11 5 128
50 260 100 132 50 254 97 270 104 17 8 64 26 105 40 41 15 89 33 105 40 17 7
86 34 155 60 69 26 134 51 145 56 11 4 70 27 130 50 61 23 171 66 245 94 74
29 209 81 300 115 91 35 179 69 195 76 17 7 215 83 440 170 226 86 451 173
500 192 50 19 107 41 128 48 69 25 481 184 502 194 11 4 164 63 340 130 176
67 329 126 340 131 11 5 209 81 440 169 231 88 429 165 440 170 11 4 45 18 75
29 70 25 418 159 445 170 11 5 47 19 80 31 33 12 74 28 90 35 17 7 73 28 125
48 52 20 228 88 390 151 l295 113 0 1053 c0 694 -3 1054 -10 1056 -5 1 -44
-11 -85 -27z"/>
<path d="M4985 2982 c-748 -299 -1540 -616 -1760 -704 l-401 -160 2 -1057 c0
-581 2 -1057 3 -1058 1 -1 212 81 246 97 11 5 461 185 1000 400 539 215 989
395 1000 400 11 5 146 59 300 120 154 61 294 118 312 126 17 7 34 14 38 14 4
0 21 7 38 14 18 8 91 38 162 66 72 28 144 57 160 64 17 7 80 32 140 56 61 24
114 47 119 51 9 8 14 2105 5 2112 -2 2 -616 -241 -1364 -541z"/>
</g>
</svg>
