<svg id="Layer_1" data-name="Layer 1" xmlns="http://www.w3.org/2000/svg" viewBox="0 0 725 237"><defs><style>.cls-1{fill:none;}.cls-2{fill:#1da2b4;}</style></defs><title>bidgetlogo-freelogovectors.net</title><rect class="cls-1" width="725" height="237"/><path id="路径" class="cls-2" d="M712.1,335.87a2.66,2.66,0,0,1,2,.77,2.94,2.94,0,0,1,.73,2.12v17.5a2.94,2.94,0,0,1-.73,2.12,2.66,2.66,0,0,1-2,.77H697.49v69.56a2.94,2.94,0,0,1-.73,2.12,2.62,2.62,0,0,1-2,.77H672.85a2.66,2.66,0,0,1-2-.77,2.94,2.94,0,0,1-.73-2.12V359.15H655.5a2.66,2.66,0,0,1-2-.77,3,3,0,0,1-.73-2.12v-17.5a3,3,0,0,1,.73-2.12,2.66,2.66,0,0,1,2-.77h14.61V311.36a2.94,2.94,0,0,1,.73-2.12,2.66,2.66,0,0,1,2-.77h21.91a2.62,2.62,0,0,1,2,.77,2.94,2.94,0,0,1,.73,2.12v24.51Z" transform="translate(-12 -257)"/><path id="形状" class="cls-2" d="M649.08,382.11c0,4.24-.42,7.31-1.27,9.24s-2.62,2.69-5.3,2.69H588.29a19.7,19.7,0,0,0,7.85,11.74q6,3.84,15.15,3.85a30.94,30.94,0,0,0,8.58-1.16,35.22,35.22,0,0,0,8.77-4.42,2.6,2.6,0,0,1,4,.38l9.5,9.62a2.7,2.7,0,0,1,.73,1.92,3.41,3.41,0,0,1-1.1,2.31,47.55,47.55,0,0,1-15.15,10.78,44.94,44.94,0,0,1-18.08,3.65,47.18,47.18,0,0,1-24.65-6.54,45.72,45.72,0,0,1-16.79-17.7,51,51,0,0,1-6-24.62,52.35,52.35,0,0,1,5.84-24.63,45.26,45.26,0,0,1,16.44-17.51,42.64,42.64,0,0,1,23.18-6.54,39.71,39.71,0,0,1,22.28,6.35,42.41,42.41,0,0,1,15,17.12A52.48,52.48,0,0,1,649.08,382.11ZM606.72,359.6a18.54,18.54,0,0,0-12.23,4.24q-5.12,4-6.57,11.92H624.8q-1.27-7.87-6.21-11.92A17.56,17.56,0,0,0,606.72,359.6Z" transform="translate(-12 -257)"/><path id="形状-2" data-name="形状" class="cls-2" d="M549.14,337.29a2.61,2.61,0,0,1,2,.77,2.91,2.91,0,0,1,.73,2.11v90.62q0,14-7.3,22.7A38.26,38.26,0,0,1,526.5,466a69,69,0,0,1-22.27,3.65,70.56,70.56,0,0,1-22.09-3.46,57.06,57.06,0,0,1-17.71-8.85,2.45,2.45,0,0,1-1.1-2.12,3.22,3.22,0,0,1,.37-1.73L470.82,440c.73-1,1.46-1.54,2.19-1.54a2.47,2.47,0,0,1,1.46.39,47.25,47.25,0,0,0,12.78,5.58A59.66,59.66,0,0,0,502,446.18,34.55,34.55,0,0,0,519,442q7.66-4.05,7.66-13.66v-8.85q-10.59,12.69-26.28,12.69a39.11,39.11,0,0,1-22.1-6.54,45.51,45.51,0,0,1-15.52-17.7,56.44,56.44,0,0,1,0-48.48,45.51,45.51,0,0,1,15.52-17.7,39.11,39.11,0,0,1,22.1-6.54q15,0,25.56,12.51l.54-7.51c.25-1.92,1.16-2.88,2.74-2.88Zm-45.28,68.49A18.17,18.17,0,0,0,518.1,399,23,23,0,0,0,524,383.46a22.34,22.34,0,0,0-5.85-15.39,18.16,18.16,0,0,0-14.24-6.73,18.58,18.58,0,0,0-14.42,6.54,22.16,22.16,0,0,0-5.84,15.58,23.52,23.52,0,0,0,5.66,16A19,19,0,0,0,503.86,405.78Z" transform="translate(-12 -257)"/><path id="路径-2" data-name="路径" class="cls-2" d="M448.13,335.87a2.66,2.66,0,0,1,2,.77,3,3,0,0,1,.73,2.12v17.5a3,3,0,0,1-.73,2.12,2.66,2.66,0,0,1-2,.77H433.52v69.56a2.94,2.94,0,0,1-.73,2.12,2.64,2.64,0,0,1-2,.77h-21.9a2.67,2.67,0,0,1-2-.77,3,3,0,0,1-.72-2.12V359.15H391.53a2.66,2.66,0,0,1-2-.77,2.94,2.94,0,0,1-.73-2.12v-17.5a2.94,2.94,0,0,1,.73-2.12,2.66,2.66,0,0,1,2-.77h14.61V311.36a3,3,0,0,1,.72-2.12,2.67,2.67,0,0,1,2-.77h21.9a2.64,2.64,0,0,1,2,.77,2.94,2.94,0,0,1,.73,2.12v24.51Z" transform="translate(-12 -257)"/><path id="形状-3" data-name="形状" class="cls-2" d="M365,328a13.76,13.76,0,0,1-10.4-4.42,15.77,15.77,0,0,1-4.2-11,15.33,15.33,0,0,1,4.2-11,14,14,0,0,1,20.81,0,15.33,15.33,0,0,1,4.2,11,15.77,15.77,0,0,1-4.2,11A13.77,13.77,0,0,1,365,328Zm-13.69,10.69a2.94,2.94,0,0,1,.73-2.12,2.66,2.66,0,0,1,2-.77h21.91a2.66,2.66,0,0,1,2,.77,2.94,2.94,0,0,1,.73,2.12v89.95a2.94,2.94,0,0,1-.73,2.12,2.66,2.66,0,0,1-2,.77H354a2.66,2.66,0,0,1-2-.77,2.94,2.94,0,0,1-.73-2.12Z" transform="translate(-12 -257)"/><path id="形状-4" data-name="形状" class="cls-2" d="M316.17,359.75a34.59,34.59,0,0,1,17.52,11.73,32,32,0,0,1,7.49,21.36q0,19.43-11.87,29.24-11.69,9.62-35.78,9.62H248.61a2.66,2.66,0,0,1-2-.77,3,3,0,0,1-.73-2.12V299.91a3,3,0,0,1,.73-2.11,2.62,2.62,0,0,1,2-.77h44.73q12.06,0,20.63,4.61a31.17,31.17,0,0,1,13.15,12.51,34.73,34.73,0,0,1,4.57,17.7,33.07,33.07,0,0,1-4.57,17.51Q322.74,356.86,316.17,359.75Zm-11-24.05q0-12.31-14.42-12.32H274.17v25.78h16.62q6.75,0,10.59-3.27Q305.21,342.42,305.21,335.7Zm-10.59,69.64q8.4,0,13.33-4t4.93-12.12q0-7.89-4.93-11.54-4.93-3.86-13.33-3.85H274.17v31.55Z" transform="translate(-12 -257)"/><path id="路径-3" data-name="路径" class="cls-2" d="M89.34,285a12,12,0,0,1,9-4h22a3.31,3.31,0,0,1,2.33,5.54L79.11,334.89h24l24.46,27H79.11l48.51,53.9H98.3a12,12,0,0,1-9-4L40.13,357a13,13,0,0,1,0-17.32Z" transform="translate(-12 -257)"/><path id="路径-4" data-name="路径" class="cls-2" d="M157,465.61a12.06,12.06,0,0,1-9,4H126a3.31,3.31,0,0,1-2.32-5.54l43.52-48.36h-24L118.69,388.8H167.2l-48.51-53.91H148a12.1,12.1,0,0,1,9,4l49.2,54.68a13,13,0,0,1,0,17.32Z" transform="translate(-12 -257)"/></svg>