<svg width="257" height="19" viewBox="0 0 257 19" fill="none" xmlns="http://www.w3.org/2000/svg">
<path d="M74.3736 3.68555H70.6917H67.7461V18.4133H70.6917V13.995H74.3736C77.2197 13.995 79.5283 11.6864 79.5283 8.84027C79.5283 5.99413 77.2197 3.68555 74.3736 3.68555ZM74.3736 11.0494H70.6917V6.63111H74.3736C75.5923 6.63111 76.5828 7.62155 76.5828 8.84027C76.5828 10.059 75.5923 11.0494 74.3736 11.0494Z" fill="#0D0C43"/>
<path d="M184.834 3.68561H181.152H178.206V18.4134H181.152V13.9951H184.834C187.68 13.9951 189.989 11.6865 189.989 8.84034C189.989 5.99419 187.68 3.68561 184.834 3.68561ZM184.834 11.0495H181.152V6.63117H184.834C186.053 6.63117 187.043 7.62161 187.043 8.84034C187.043 10.0591 186.053 11.0495 184.834 11.0495Z" fill="#0D0C43"/>
<path d="M206.924 3.68555H203.242H200.297V18.4133H203.242V13.995H206.924C209.771 13.995 212.079 11.6864 212.079 8.84027C212.079 5.99413 209.771 3.68555 206.924 3.68555ZM206.924 11.0494H203.242V6.63111H206.924C208.143 6.63111 209.134 7.62155 209.134 8.84027C209.134 10.059 208.143 11.0494 206.924 11.0494Z" fill="#0D0C43"/>
<path d="M54.491 3.68555L51.5455 9.57666L48.5999 3.68555H44.918L50.0727 12.5222V18.4133H53.0183V12.5222L58.173 3.68555H54.491Z" fill="#0D0C43"/>
<path d="M10.8323 13.7815C10.0223 14.8088 8.7704 15.4679 7.3639 15.4679C4.92276 15.4679 2.94556 13.4907 2.94556 11.0495C2.94556 8.60839 4.92276 6.63119 7.3639 6.63119C8.7704 6.63119 10.0223 7.29026 10.8323 8.31752L12.92 6.22617C11.5687 4.67239 9.58411 3.68195 7.3639 3.68195C3.29534 3.68195 0 6.97729 0 11.0458C0 15.1144 3.29534 18.4097 7.3639 18.4097C9.58411 18.4097 11.5724 17.423 12.92 15.8655L10.8323 13.7815Z" fill="#0D0C43"/>
<path d="M10.8323 8.31751C10.0223 7.29025 8.7704 6.63118 7.3639 6.63118C4.92276 6.63118 2.94556 8.60838 2.94556 11.0495C2.94556 13.4906 4.92276 15.4679 7.3639 15.4679C8.7704 15.4679 10.0223 14.8088 10.8323 13.7815L12.92 15.8729C11.5687 17.4267 9.58411 18.4171 7.3639 18.4171C3.29534 18.4171 0 15.1217 0 11.0532C0 6.98464 3.29534 3.6893 7.3639 3.6893C9.58411 3.6893 11.5724 4.67606 12.92 6.23353L10.8323 8.31751Z" fill="#0D0C43"/>
<path d="M36.085 18.4133L32.5283 13.4317C34.1999 12.5811 35.3486 10.8469 35.3486 8.84027C35.3486 5.99413 33.0401 3.68555 30.1939 3.68555H26.512H23.5664V18.4133H26.512V13.995H29.2476L32.4031 18.4133H36.085ZM26.512 6.63111H30.1939C31.4126 6.63111 32.4031 7.62155 32.4031 8.84027C32.4031 10.059 31.4126 11.0494 30.1939 11.0494H26.512V6.63111Z" fill="#0D0C43"/>
<path d="M257 18.4134L253.443 13.4317C255.115 12.5812 256.264 10.847 256.264 8.84034C256.264 5.99419 253.955 3.68561 251.109 3.68561H247.427H244.481V18.4134H247.427V13.9951H250.163L253.318 18.4134H257ZM247.427 6.63117H251.109C252.328 6.63117 253.318 7.62161 253.318 8.84034C253.318 10.0591 252.328 11.0495 251.109 11.0495H247.427V6.63117Z" fill="#0D0C43"/>
<path d="M101.622 3.68561H97.2035H94.2579H89.8396V6.63117H94.2579V18.4134H97.2035V6.63117H101.622V3.68561Z" fill="#0D0C43"/>
<path d="M117.821 3.68555C113.752 3.68555 110.457 6.98089 110.457 11.0494C110.457 15.118 113.752 18.4133 117.821 18.4133C121.889 18.4133 125.185 15.118 125.185 11.0494C125.185 6.98089 121.889 3.68555 117.821 3.68555ZM117.821 15.4678C115.38 15.4678 113.403 13.4906 113.403 11.0494C113.403 8.60831 115.38 6.63111 117.821 6.63111C120.262 6.63111 122.239 8.60831 122.239 11.0494C122.239 13.4906 120.262 15.4678 117.821 15.4678Z" fill="#0D0C43"/>
<path d="M162.005 0C157.936 0 154.641 3.29535 154.641 7.3639C154.641 11.4325 157.936 14.7278 162.005 14.7278C166.073 14.7278 169.368 11.4325 169.368 7.3639C169.368 3.29535 166.073 0 162.005 0ZM162.005 11.7822C159.563 11.7822 157.586 9.80503 157.586 7.3639C157.586 4.92277 159.563 2.94556 162.005 2.94556C164.446 2.94556 166.423 4.92277 166.423 7.3639C166.423 9.80503 164.446 11.7822 162.005 11.7822Z" fill="#00B2C8"/>
<path d="M225.335 15.4678V12.5223H232.699V9.57673H225.335V6.63117H233.435V3.68561H225.335H222.39V6.63117V9.57673V12.5223V15.4678V18.4134H225.335H233.804V15.4678H225.335Z" fill="#0D0C43"/>
<path d="M142.86 3.68561V9.57673H136.969V3.68561H134.023V9.57673V12.5223V18.4134H136.969V12.5223H142.86V18.4134H145.805V12.5223V9.57673V3.68561H142.86Z" fill="#0D0C43"/>
</svg>
