<svg xmlns="http://www.w3.org/2000/svg" viewBox="0 0 90 90">

  <style>.eye{fill:#F6F6F6;}</style>

  <defs>







    <linearGradient spreadMethod="pad" id="gradient" x1="0%" y1="0%" x2="100%" y2="100%">
	  <stop offset="0%" style="stop-color:#4A4090;" />
	  <stop offset="100%" style="stop-color:#372E6C;" />
    </linearGradient>
  </defs>
   <g fill="url(#gradient)">
<path class="gradient" d="M 0 0 L 90 0 L 90 90 L 0 90 L 0 0"/>
    

  </g>
  <g>
   <path class="eye" d="M 18 24 a 6 6 0 1 1 12 0 a 6 6 0 1 1 -12 0 M 19 38 a 5 5 0 1 1 10 0 a 5 5 0 1 1 -10 0 M 20 51 a 4 4 0 1 1 8 0 a 4 4 0 1 1 -8 0 M 21 63 a 3 3 0 1 1 6 0 a 3 3 0 1 1 -6 0 M 32 24 a 6 6 0 1 1 12 0 a 6 6 0 1 1 -12 0 M 32 38 a 6 6 0 1 1 12 0 a 6 6 0 1 1 -12 0 M 32 52 a 6 6 0 1 1 12 0 a 6 6 0 1 1 -12 0 M 46 38 a 6 6 0 1 1 12 0 a 6 6 0 1 1 -12 0 M 46 52 a 6 6 0 1 1 12 0 a 6 6 0 1 1 -12 0 M 46 66 a 6 6 0 1 1 12 0 a 6 6 0 1 1 -12 0 M 60 66 a 6 6 0 1 1 12 0 a 6 6 0 1 1 -12 0 M 61 52 a 5 5 0 1 1 10 0 a 5 5 0 1 1 -10 0 M 62 39 a 4 4 0 1 1 8 0 a 4 4 0 1 1 -8 0 M 63 27 a 3 3 0 1 1 6 0 a 3 3 0 1 1 -6 0"/>
	  
  </g>




  
</svg>